<?xml version="1.0" encoding="UTF-8" standalone="no"?>
<!DOCTYPE svg PUBLIC "-//W3C//DTD SVG 1.1//EN"
 "http://www.w3.org/Graphics/SVG/1.1/DTD/svg11.dtd">
<!-- Generated by graphviz version 2.40.1 (20161225.0304)
 -->
<!-- Title: prereqs Pages: 1 -->
<svg width="344pt" height="130pt"
 viewBox="0.00 0.00 344.26 130.00" xmlns="http://www.w3.org/2000/svg" xmlns:xlink="http://www.w3.org/1999/xlink">
<g id="graph0" class="graph" transform="scale(1 1) rotate(0) translate(4 126)">
<title>prereqs</title>
<polygon fill="#ffffff" stroke="transparent" points="-4,4 -4,-126 340.2588,-126 340.2588,4 -4,4"/>
<!-- A -->
<g id="node1" class="node">
<title>A</title>
<polygon fill="#ff0000" stroke="#ff0000" points="96,-122 42,-122 42,-86 96,-86 96,-122"/>
<text text-anchor="middle" x="69" y="-99.8" font-family="Times,serif" font-size="14.00" fill="#000000">A;</text>
</g>
<!-- B -->
<g id="node2" class="node">
<title>B</title>
<polygon fill="#00ff00" stroke="#00ff00" points="178,-36 124,-36 124,0 178,0 178,-36"/>
<text text-anchor="middle" x="151" y="-13.8" font-family="Times,serif" font-size="14.00" fill="#000000">B;</text>
</g>
<!-- A&#45;&gt;B -->
<g id="edge1" class="edge">
<title>A&#45;&gt;B</title>
<path fill="none" stroke="#000000" d="M81.288,-85.5713C88.2323,-75.7418 97.3796,-63.7075 106.7412,-54 110.4282,-50.1768 114.5126,-46.3756 118.6661,-42.7551"/>
<polygon fill="#000000" stroke="#000000" points="121.2396,-45.1647 126.6523,-36.0569 116.7412,-39.8014 121.2396,-45.1647"/>
<text text-anchor="middle" x="137.1294" y="-56.8" font-family="Times,serif" font-size="14.00" fill="#000000">variation 0</text>
</g>
<!-- E -->
<g id="node5" class="node">
<title>E</title>
<polygon fill="#00ff00" stroke="#00ff00" points="54,-36 0,-36 0,0 54,0 54,-36"/>
<text text-anchor="middle" x="27" y="-13.8" font-family="Times,serif" font-size="14.00" fill="#000000">E;</text>
</g>
<!-- A&#45;&gt;E -->
<g id="edge3" class="edge">
<title>A&#45;&gt;E</title>
<path fill="none" stroke="#000000" d="M41.846,-86.1332C36.1685,-81.0028 30.9398,-74.8997 27.7412,-68 24.6992,-61.438 23.5587,-53.8516 23.4042,-46.6024"/>
<polygon fill="#000000" stroke="#000000" points="26.91,-46.5024 23.7767,-36.3816 19.9147,-46.2474 26.91,-46.5024"/>
<text text-anchor="middle" x="58.1294" y="-56.8" font-family="Times,serif" font-size="14.00" fill="#000000">variation 1</text>
</g>
<!-- C -->
<g id="node3" class="node">
<title>C</title>
<polygon fill="#00ff00" stroke="#00ff00" points="303,-122 249,-122 249,-86 303,-86 303,-122"/>
<text text-anchor="middle" x="276" y="-99.8" font-family="Times,serif" font-size="14.00" fill="#000000">C;</text>
</g>
<!-- D -->
<g id="node4" class="node">
<title>D</title>
<polygon fill="#ff0000" stroke="#ff0000" points="303,-36 249,-36 249,0 303,0 303,-36"/>
<text text-anchor="middle" x="276" y="-13.8" font-family="Times,serif" font-size="14.00" fill="#000000">D;</text>
</g>
<!-- C&#45;&gt;D -->
<g id="edge2" class="edge">
<title>C&#45;&gt;D</title>
<path fill="none" stroke="#000000" d="M276,-85.7616C276,-74.3597 276,-59.4342 276,-46.494"/>
<polygon fill="#000000" stroke="#000000" points="279.5001,-46.2121 276,-36.2121 272.5001,-46.2121 279.5001,-46.2121"/>
<text text-anchor="middle" x="306.1294" y="-56.8" font-family="Times,serif" font-size="14.00" fill="#000000">variation 2</text>
</g>
<!-- F -->
<g id="node6" class="node">
<title>F</title>
<polygon fill="#00ff00" stroke="#00ff00" points="220,-122 166,-122 166,-86 220,-86 220,-122"/>
<text text-anchor="middle" x="193" y="-99.8" font-family="Times,serif" font-size="14.00" fill="#000000">F;</text>
</g>
<!-- F&#45;&gt;B -->
<g id="edge4" class="edge">
<title>F&#45;&gt;B</title>
<path fill="none" stroke="#000000" d="M185.456,-85.7617C181.3825,-76.2047 176.1448,-64.3633 171,-54 169.5375,-51.0542 167.9549,-48.0046 166.3425,-44.9838"/>
<polygon fill="#000000" stroke="#000000" points="169.375,-43.2344 161.5064,-36.1397 163.2333,-46.5928 169.375,-43.2344"/>
<text text-anchor="middle" x="207.1294" y="-56.8" font-family="Times,serif" font-size="14.00" fill="#000000">variation 0</text>
</g>
</g>
</svg>
